<svg width="1885" height="1084" viewBox="0 0 1885 1084" fill="none" xmlns="http://www.w3.org/2000/svg">
<path d="M481.733 777.649L384.151 820.277C359.877 830.881 331.545 820.714 319.553 797.095L294.213 747.189L143.111 405.566L123.717 343.997C115.948 319.334 128.266 292.816 152.123 282.843L397.473 180.286C422.481 169.832 451.264 181.208 462.368 205.935L528.414 353.008L541.807 398.206C548.098 419.436 567.604 434 589.747 434H598.976C626.59 434 648.976 411.614 648.976 384V357.965C648.976 354.669 649.302 351.38 649.949 348.148L670.586 245.084C676.012 217.985 702.394 200.428 729.486 205.885L745.026 209.015C748.277 209.67 751.584 210 754.9 210H824.631C827.812 210 830.987 209.696 834.111 209.093L850.085 206.008C878.243 200.571 905.196 219.883 909.1 248.295L913.168 277.906C916.904 305.09 941.85 324.185 969.067 320.693L992.529 317.682C1011.95 315.19 1031.04 324.265 1041.37 340.901L1064.42 378.022C1079.23 401.869 1110.76 408.858 1134.25 393.501L1149.2 383.73C1161.11 375.948 1175.77 373.605 1189.51 377.289L1346.05 419.257C1351.52 420.725 1357.3 420.695 1362.76 419.168C1385.25 412.88 1393.41 385.223 1377.93 367.734L1288.46 266.653C1269.24 244.946 1272.46 211.501 1295.45 193.85L1332.55 165.373C1352.27 150.236 1380.12 151.888 1397.92 169.25L1424.98 195.655C1453.16 223.154 1500.59 208.799 1508.8 170.289L1515.25 140.001C1520.49 115.411 1543.18 98.536 1568.23 100.588L1635.9 106.128C1666.93 108.668 1688.12 138.633 1680.17 168.729L1569.06 589.405C1566.08 600.705 1558.88 610.436 1548.96 616.605C1528.62 629.239 1521.45 655.405 1532.51 676.639L1565.94 740.859C1576.04 760.259 1572.36 783.97 1556.85 799.395L1519.07 836.973C1502.12 853.835 1475.61 856.337 1455.8 842.942L1399.25 804.694C1390 798.438 1383.29 789.083 1380.33 778.315L1374.98 758.841C1366.71 728.749 1327.27 721.641 1309.02 746.954C1302.88 755.47 1293.42 760.99 1282.99 762.149L1218.14 769.354C1199.09 771.471 1186.84 790.619 1192.9 808.808C1199.75 829.362 1183.31 850.209 1161.72 848.332L1056.3 839.165H978.883C962.581 839.165 948.349 828.123 944.298 812.332C940.247 796.542 926.015 785.5 909.713 785.5H744.41C735.571 785.5 726.89 787.843 719.251 792.291L703.077 801.709C695.438 806.157 686.757 808.5 677.918 808.5H636.212C626.554 808.5 617.102 805.703 609 800.446L579.828 781.522C571.726 776.265 562.274 773.468 552.616 773.468H501.748C494.86 773.468 488.045 774.891 481.733 777.649Z" fill="#DCE0E8" stroke="#DCE0E8" stroke-width="102"/>
<mask id="mask0_1_2" style="mask-type:alpha" maskUnits="userSpaceOnUse" x="641" y="195" width="296" height="296">
<path d="M752.039 429.042C690.581 447.479 690.581 398.312 665.997 392.167M838.081 465.917V418.348C838.542 412.487 837.75 406.595 835.758 401.063C833.766 395.532 830.619 390.488 826.526 386.267C865.122 381.965 905.685 367.337 905.685 300.225C905.682 283.064 899.08 266.561 887.247 254.131C892.851 239.117 892.454 222.521 886.141 207.792C886.141 207.792 871.637 203.49 838.081 225.983C809.908 218.348 780.211 218.348 752.039 225.983C718.483 203.49 703.979 207.792 703.979 207.792C697.665 222.521 697.269 239.117 702.872 254.131C690.951 266.653 684.343 283.305 684.435 300.594C684.435 367.215 724.997 381.842 763.593 386.635C759.549 390.814 756.43 395.798 754.44 401.262C752.449 406.725 751.631 412.547 752.039 418.348V465.917" stroke="#179299" stroke-width="12" stroke-linecap="round" stroke-linejoin="round"/>
</mask>
<g mask="url(#mask0_1_2)">
<path d="M189.099 550.099L202.238 1023.12H2035.18L1962.91 326.73L1476.76 -60.8813L31.4263 221.615L189.099 550.099Z" fill="url(#paint0_linear_1_2)"/>
<path d="M169.39 504.111L182.529 977.128H2015.47L1943.2 280.742L1457.05 -106.869L11.7172 175.627L169.39 504.111Z" fill="url(#paint1_linear_1_2)"/>
<path d="M169.39 504.111L182.529 977.128H2015.47L1943.2 280.742L1457.05 -106.869L11.7172 175.627L169.39 504.111Z" fill="url(#paint2_linear_1_2)"/>
</g>
<mask id="mask1_1_2" style="mask-type:alpha" maskUnits="userSpaceOnUse" x="528" y="609" width="292" height="292">
<path d="M556.362 739.578L620.135 747.855M727.423 761.781L791.195 770.058M716.597 760.376C713.524 784.053 691.838 800.757 668.16 797.683C644.483 794.61 627.779 772.924 630.853 749.246C633.926 725.569 655.612 708.865 679.29 711.939C702.967 715.012 719.671 736.698 716.597 760.376Z" stroke="#179299" stroke-width="12" stroke-linecap="round" stroke-linejoin="round"/>
</mask>
<g mask="url(#mask1_1_2)">
<path d="M189.099 550.099L202.238 1023.12H2035.18L1962.91 326.73L1476.76 -60.8813L31.4263 221.615L189.099 550.099Z" fill="url(#paint3_linear_1_2)"/>
<path d="M169.39 504.111L182.529 977.128H2015.47L1943.2 280.742L1457.05 -106.869L11.7172 175.627L169.39 504.111Z" fill="url(#paint4_linear_1_2)"/>
<path d="M169.39 504.111L182.529 977.128H2015.47L1943.2 280.742L1457.05 -106.869L11.7172 175.627L169.39 504.111Z" fill="url(#paint5_linear_1_2)"/>
</g>
<mask id="mask2_1_2" style="mask-type:alpha" maskUnits="userSpaceOnUse" x="943" y="628" width="231" height="231">
<path d="M1087.16 801C1087.16 816.878 1100.04 829.75 1115.91 829.75C1131.79 829.75 1144.66 816.878 1144.66 801C1144.66 785.122 1131.79 772.25 1115.91 772.25C1100.04 772.25 1087.16 785.122 1087.16 801ZM1087.16 801C1064.29 801 1042.35 791.913 1026.18 775.738C1010 759.563 1000.91 737.625 1000.91 714.75M1000.91 714.75C1016.79 714.75 1029.66 701.878 1029.66 686C1029.66 670.122 1016.79 657.25 1000.91 657.25C985.036 657.25 972.164 670.122 972.164 686C972.164 701.878 985.036 714.75 1000.91 714.75ZM1000.91 714.75V829.75" stroke="#179299" stroke-width="12" stroke-linecap="round" stroke-linejoin="round"/>
</mask>
<g mask="url(#mask2_1_2)">
<path d="M189.099 550.099L202.238 1023.12H2035.18L1962.91 326.73L1476.76 -60.8813L31.4263 221.615L189.099 550.099Z" fill="url(#paint6_linear_1_2)"/>
<path d="M169.39 504.111L182.529 977.128H2015.47L1943.2 280.742L1457.05 -106.869L11.7172 175.627L169.39 504.111Z" fill="url(#paint7_linear_1_2)"/>
<path d="M169.39 504.111L182.529 977.128H2015.47L1943.2 280.742L1457.05 -106.869L11.7172 175.627L169.39 504.111Z" fill="url(#paint8_linear_1_2)"/>
</g>
<mask id="mask3_1_2" style="mask-type:alpha" maskUnits="userSpaceOnUse" x="1351" y="628" width="237" height="238">
<path d="M1371.08 648.25L1513.66 682.812L1528.41 756.875L1479.25 806.25L1405.5 791.438L1371.08 648.25ZM1371.08 648.25L1445.68 723.162M1469.41 816.125L1538.25 747L1567.75 776.625L1498.91 845.75L1469.41 816.125ZM1479.25 737.125C1479.25 748.033 1470.44 756.875 1459.58 756.875C1448.72 756.875 1439.91 748.033 1439.91 737.125C1439.91 726.217 1448.72 717.375 1459.58 717.375C1470.44 717.375 1479.25 726.217 1479.25 737.125Z" stroke="#179299" stroke-width="12" stroke-linecap="round" stroke-linejoin="round"/>
</mask>
<g mask="url(#mask3_1_2)">
<path d="M189.099 550.099L202.238 1023.12H2035.18L1962.91 326.73L1476.76 -60.8813L31.4263 221.615L189.099 550.099Z" fill="url(#paint9_linear_1_2)"/>
<path d="M169.39 504.111L182.529 977.128H2015.47L1943.2 280.742L1457.05 -106.869L11.7172 175.627L169.39 504.111Z" fill="url(#paint10_linear_1_2)"/>
<path d="M169.39 504.111L182.529 977.128H2015.47L1943.2 280.742L1457.05 -106.869L11.7172 175.627L169.39 504.111Z" fill="url(#paint11_linear_1_2)"/>
</g>
<mask id="mask4_1_2" style="mask-type:alpha" maskUnits="userSpaceOnUse" x="119" y="99" width="1546" height="721">
<path d="M1531.69 606.256L1444.9 606.205C1435.88 606.092 1430.62 603.33 1428.61 598.119C1427.21 594.471 1427.36 590.221 1428.56 585.569L1463.54 432.611C1461.37 431.65 1459.32 429.446 1456.55 426.922L1274.13 244.066C1271.16 241.021 1268.91 238.297 1267.91 235.691C1265.09 228.396 1269.54 221.295 1276.55 216.197L1349.94 159.762C1351.83 158.437 1353.71 157.112 1355.79 156.309C1365.17 152.693 1374.56 156.855 1381.62 164.307L1497.67 280.576C1510.52 222.345 1522.34 164.515 1532.39 114.546C1533.51 108.13 1535.95 103.597 1541.68 101.387C1544.81 100.182 1549.9 99.4157 1556.31 100.533L1649.41 110.723C1656.87 111.439 1661.4 113.881 1663.21 118.571C1666.23 126.388 1667.83 248.482 1554.61 589.637C1551.61 597.379 1548.13 602.313 1541.88 604.724C1539.27 605.729 1535.94 606.413 1531.69 606.256Z" fill="black"/>
<path d="M1079.98 705.511L1103.5 670.883C1106.6 665.932 1111.95 664.25 1116.51 665.473C1117.34 665.696 1118.06 666.333 1118.89 666.556C1129.32 672.464 1138.95 676.378 1148.08 678.825C1182.94 688.167 1208.62 673.693 1227.48 643.156C1213.5 643.859 1198.72 642.568 1185.44 639.009C1121.94 621.994 1077.92 555.481 1098.61 478.276C1112.07 428.052 1158.3 375.044 1245.88 398.51C1265.8 403.848 1283.89 412.7 1298.19 424.093C1300.66 419.861 1304.61 420.032 1308.35 421.033L1310.43 421.589C1310.43 421.589 1377.27 444.394 1386.71 447.367C1393.24 449.561 1395.94 456.069 1394.27 462.295C1373.87 535.126 1353.21 610.559 1324.49 669.595C1283.9 753.031 1211.16 770.467 1146.41 753.118C1122.34 746.667 1099.49 735.651 1079.83 721.04C1076.42 718.794 1076.48 715.251 1077.37 711.93C1078.04 709.44 1079.12 707.06 1079.98 705.511ZM1255.72 569.31L1258.13 568.621C1263.41 552.24 1268.72 534.088 1273.72 515.41C1277.29 495.456 1263.88 480.742 1246.03 475.96C1219.88 468.954 1199.69 486.23 1193.46 509.474C1189.12 525.662 1186.64 561.478 1223.17 571.265C1233.13 573.934 1247.63 572.927 1255.72 569.31Z" fill="black"/>
<path d="M970.163 589.065L966.271 561.125C965.586 557.245 967.498 553.989 970.334 552.538C970.85 552.274 971.497 552.267 972.013 552.004C979.897 550.245 986.48 547.851 992.152 544.948C1013.81 533.862 1020.1 515.021 1015.73 491.23C1009.06 497.899 1001.09 503.933 992.839 508.156C953.396 528.347 901.329 514.982 876.782 467.032C860.814 435.838 859.976 388.44 914.371 360.594C926.745 354.259 939.792 350.508 952.09 349.744C951.411 346.512 953.468 344.809 955.788 343.621L957.077 342.961C957.077 342.961 1000.81 324.154 1006.87 321.376C1011.13 319.523 1015.42 321.554 1017.4 325.421C1040.11 371.058 1063.87 418.109 1076.19 460.606C1093.6 520.67 1065.11 562.259 1024.89 582.847C1009.94 590.501 993.537 595.32 977.102 596.901C974.386 597.315 972.814 595.516 971.759 593.454C970.967 591.907 970.433 590.229 970.163 589.065ZM996.481 441.545L997.374 440.112C992.611 429.536 987.062 418.061 981.123 406.46C973.89 394.871 960.536 393.573 949.451 399.248C933.209 407.562 930.917 425.329 938.307 439.766C943.454 449.82 958.401 468.848 981.087 457.234C987.274 454.067 994.072 447.008 996.481 441.545Z" fill="black"/>
<path d="M956.414 628.302C956.414 705.403 878.256 748.5 822.203 748.5C757.861 748.5 701.414 701.844 701.414 632.256C701.414 550.806 762.203 508.5 831.677 508.5C918.914 508.5 956.414 576.902 956.414 628.302ZM831.677 672.981C859.703 672.981 872.335 650.049 872.335 627.512C872.335 619.999 870.756 581.647 830.493 581.647C797.335 581.647 787.861 609.719 787.861 627.512C787.861 654.793 809.177 672.981 831.677 672.981Z" fill="black"/>
<path d="M629.854 706.916L540.663 700.271C535.324 699.575 531.338 695.436 532.033 690.096L549.728 457.084C550.423 451.744 555.008 447.816 559.903 448.454L611.87 452.511C636.885 448.078 660.488 447.534 682.738 450.433C697.867 452.405 712.32 456.098 725.709 461.011C732.152 463.661 734.358 467.568 733.662 472.908C733.43 474.688 732.753 476.41 732.018 478.577L710.937 539.637C708.79 545.693 703.934 548.228 698.594 547.532C697.259 547.358 695.537 546.681 693.815 546.004C686.986 542.851 679.595 540.53 672.03 539.544C665.8 538.733 659.454 538.811 652.103 539.663L640.029 698.287L639.914 699.177C639.276 704.071 634.749 707.554 629.854 706.916Z" fill="black"/>
<path d="M481.585 763.785L356.804 818.327C349.447 822.039 339.93 818.422 336.236 811.1L335.62 809.88L120.632 321.306C116.63 313.375 120.295 303.871 128.879 299.54L243.542 249.337L245.994 248.1L419.828 171.868C427.186 168.156 437.316 171.464 441.318 179.396L441.934 180.616L493.987 299.021C497.681 306.343 494.324 316.457 486.353 320.479L485.127 321.097L333.98 387.412L355.233 435.629L468.067 392.473C476.653 389.671 485.249 392.988 488.944 400.309L489.867 402.14L528.098 511.445C531.179 519.076 527.514 528.58 519.543 532.602L518.317 533.22L414.987 572.346L489.832 742.018C493.221 750.259 489.556 759.763 481.585 763.785Z" fill="black"/>
</mask>
<g mask="url(#mask4_1_2)">
<path d="M189.099 550.099L202.238 1023.12H2035.18L1962.91 326.73L1476.76 -60.8813L31.4263 221.615L189.099 550.099Z" fill="url(#paint12_linear_1_2)"/>
<path d="M169.39 504.111L182.529 977.128H2015.47L1943.2 280.742L1457.05 -106.869L11.7172 175.627L169.39 504.111Z" fill="url(#paint13_linear_1_2)"/>
<path d="M169.39 504.111L182.529 977.128H2015.47L1943.2 280.742L1457.05 -106.869L11.7172 175.627L169.39 504.111Z" fill="url(#paint14_linear_1_2)"/>
</g>
<defs>
<linearGradient id="paint0_linear_1_2" x1="987.912" y1="421.395" x2="1036.59" y2="740.62" gradientUnits="userSpaceOnUse">
<stop stop-color="#04A5E5"/>
<stop offset="0.822888" stop-color="#40A02B"/>
</linearGradient>
<linearGradient id="paint1_linear_1_2" x1="1470.19" y1="431.845" x2="1693.56" y2="142.779" gradientUnits="userSpaceOnUse">
<stop stop-color="#04A5E5" stop-opacity="0"/>
<stop offset="0.475824" stop-color="#DF8E1D"/>
</linearGradient>
<linearGradient id="paint2_linear_1_2" x1="714.673" y1="826.025" x2="550.431" y2="944.28" gradientUnits="userSpaceOnUse">
<stop stop-color="#04A5E5" stop-opacity="0"/>
<stop offset="0.822888" stop-color="#D20F39"/>
</linearGradient>
<linearGradient id="paint3_linear_1_2" x1="987.912" y1="421.395" x2="1036.59" y2="740.62" gradientUnits="userSpaceOnUse">
<stop stop-color="#04A5E5"/>
<stop offset="0.822888" stop-color="#40A02B"/>
</linearGradient>
<linearGradient id="paint4_linear_1_2" x1="1470.19" y1="431.845" x2="1693.56" y2="142.779" gradientUnits="userSpaceOnUse">
<stop stop-color="#04A5E5" stop-opacity="0"/>
<stop offset="0.475824" stop-color="#DF8E1D"/>
</linearGradient>
<linearGradient id="paint5_linear_1_2" x1="714.673" y1="826.025" x2="550.431" y2="944.28" gradientUnits="userSpaceOnUse">
<stop stop-color="#04A5E5" stop-opacity="0"/>
<stop offset="0.822888" stop-color="#D20F39"/>
</linearGradient>
<linearGradient id="paint6_linear_1_2" x1="987.912" y1="421.395" x2="1036.59" y2="740.62" gradientUnits="userSpaceOnUse">
<stop stop-color="#04A5E5"/>
<stop offset="0.822888" stop-color="#40A02B"/>
</linearGradient>
<linearGradient id="paint7_linear_1_2" x1="1470.19" y1="431.845" x2="1693.56" y2="142.779" gradientUnits="userSpaceOnUse">
<stop stop-color="#04A5E5" stop-opacity="0"/>
<stop offset="0.475824" stop-color="#DF8E1D"/>
</linearGradient>
<linearGradient id="paint8_linear_1_2" x1="714.673" y1="826.025" x2="550.431" y2="944.28" gradientUnits="userSpaceOnUse">
<stop stop-color="#04A5E5" stop-opacity="0"/>
<stop offset="0.822888" stop-color="#D20F39"/>
</linearGradient>
<linearGradient id="paint9_linear_1_2" x1="987.912" y1="421.395" x2="1036.59" y2="740.62" gradientUnits="userSpaceOnUse">
<stop stop-color="#04A5E5"/>
<stop offset="0.822888" stop-color="#40A02B"/>
</linearGradient>
<linearGradient id="paint10_linear_1_2" x1="1470.19" y1="431.845" x2="1693.56" y2="142.779" gradientUnits="userSpaceOnUse">
<stop stop-color="#04A5E5" stop-opacity="0"/>
<stop offset="0.475824" stop-color="#DF8E1D"/>
</linearGradient>
<linearGradient id="paint11_linear_1_2" x1="714.673" y1="826.025" x2="550.431" y2="944.28" gradientUnits="userSpaceOnUse">
<stop stop-color="#04A5E5" stop-opacity="0"/>
<stop offset="0.822888" stop-color="#D20F39"/>
</linearGradient>
<linearGradient id="paint12_linear_1_2" x1="987.912" y1="421.395" x2="1036.59" y2="740.62" gradientUnits="userSpaceOnUse">
<stop stop-color="#04A5E5"/>
<stop offset="0.822888" stop-color="#40A02B"/>
</linearGradient>
<linearGradient id="paint13_linear_1_2" x1="1470.19" y1="431.845" x2="1693.56" y2="142.779" gradientUnits="userSpaceOnUse">
<stop stop-color="#04A5E5" stop-opacity="0"/>
<stop offset="0.475824" stop-color="#DF8E1D"/>
</linearGradient>
<linearGradient id="paint14_linear_1_2" x1="714.673" y1="826.025" x2="550.431" y2="944.28" gradientUnits="userSpaceOnUse">
<stop stop-color="#04A5E5" stop-opacity="0"/>
<stop offset="0.822888" stop-color="#D20F39"/>
</linearGradient>
</defs>
</svg>
